<svg width="140" height="140" viewBox="0 0 140 140" fill="none" xmlns="http://www.w3.org/2000/svg">
<g id="icons8-mail 1">
<path id="Vector" d="M122.101 79.394C123.69 76.377 124.6 72.947 124.6 69.3C124.6 60.0306 118.777 52.1402 110.599 49.0308C110.599 49.021 110.6 49.0112 110.6 49C110.6 32.7628 97.4372 19.6 81.2 19.6C67.5024 19.6 56.0266 28.9814 52.7618 41.6598C50.6954 40.9808 48.4932 40.6 46.2 40.6C35.4312 40.6 26.5678 48.7102 25.354 59.1528C18.0684 60.6942 12.6 67.1566 12.6 74.9C12.6 83.7914 19.8086 91 28.7 91C28.9478 91 29.1928 90.9832 29.4364 90.9692C29.4308 91.2142 29.4 91.4536 29.4 91.7C29.4 107.551 42.2492 120.4 58.1 120.4C67.1118 120.4 75.145 116.239 80.4076 109.74C83.4568 112.855 87.696 114.8 92.4 114.8C98.91 114.8 104.544 111.09 107.332 105.675C108.805 106.144 110.372 106.4 112 106.4C120.505 106.4 127.4 99.505 127.4 91C127.4 86.3646 125.342 82.2178 122.101 79.394Z" fill="#C7EDE6"/>
<path id="Vector_2" d="M46.9 105.7C46.9 105.7 49.0938 105.7 51.8 105.7C54.5062 105.7 56.7 103.506 56.7 100.8C56.7 98.3066 54.831 96.2724 52.423 95.963C52.4622 95.7124 52.5 95.4618 52.5 95.2C52.5 92.4938 50.3062 90.3 47.6 90.3C46.1552 90.3 44.87 90.937 43.974 91.931C43.4364 89.3998 41.1922 87.5 38.5 87.5C35.4074 87.5 32.9 90.0074 32.9 93.1C32.9 93.3674 32.942 93.6236 32.9784 93.8812C32.3792 93.3996 31.6288 93.1 30.8 93.1C29.0808 93.1 27.657 94.3418 27.363 95.977C27.1124 95.9378 26.8618 95.9 26.6 95.9C23.8938 95.9 21.7 98.0938 21.7 100.8C21.7 103.506 23.8938 105.7 26.6 105.7C29.3062 105.7 37.1 105.7 37.1 105.7V106.4H46.9V105.7Z" fill="#FDFCEF"/>
<path id="Vector_3" d="M49.35 99.4C49.1568 99.4 49 99.2432 49 99.05C49 97.3378 50.393 95.9448 52.1052 95.9448C52.1528 95.9574 53.137 95.9434 53.8468 96.1352C54.033 96.1856 54.1436 96.3774 54.0932 96.5636C54.0428 96.7512 53.851 96.8618 53.6648 96.81C53.0432 96.642 52.1248 96.642 52.1066 96.6448C50.7794 96.6448 49.7 97.7242 49.7 99.05C49.7 99.2432 49.5432 99.4 49.35 99.4Z" fill="#472B29"/>
<path id="Vector_4" d="M39.9 106.4C40.2866 106.4 40.6 106.087 40.6 105.7C40.6 105.313 40.2866 105 39.9 105C39.5134 105 39.2 105.313 39.2 105.7C39.2 106.087 39.5134 106.4 39.9 106.4Z" fill="#472B29"/>
<path id="Vector_5" d="M51.8 106.4H46.9C46.5136 106.4 46.2 106.086 46.2 105.7C46.2 105.314 46.5136 105 46.9 105H51.8C54.1156 105 56 103.116 56 100.8C56 98.7056 54.425 96.9248 52.3348 96.6574C52.1472 96.6322 51.9778 96.5342 51.8644 96.383C51.751 96.2318 51.7034 96.0414 51.7328 95.8552C51.765 95.6396 51.8 95.424 51.8 95.2C51.8 92.8844 49.9156 91 47.6 91C46.41 91 45.3068 91.497 44.4934 92.4C44.3184 92.5946 44.044 92.6772 43.7934 92.6072C43.5386 92.5386 43.344 92.3342 43.2894 92.0766C42.812 89.831 40.7974 88.2 38.5 88.2C35.798 88.2 33.6 90.398 33.6 93.1C33.6 93.3002 33.6294 93.492 33.6574 93.6852C33.698 93.9694 33.5692 94.2984 33.3186 94.4412C33.068 94.584 32.7642 94.6064 32.5402 94.4272C32.0292 94.017 31.4286 93.8 30.8 93.8C29.4476 93.8 28.2912 94.7674 28.0518 96.1016C27.9846 96.4754 27.6374 96.726 27.2552 96.6686C27.0396 96.635 26.824 96.6 26.6 96.6C24.2844 96.6 22.4 98.4844 22.4 100.8C22.4 103.116 24.2844 105 26.6 105H37.1C37.4864 105 37.8 105.314 37.8 105.7C37.8 106.086 37.4864 106.4 37.1 106.4H26.6C23.5116 106.4 21 103.888 21 100.8C21 97.7116 23.5116 95.2 26.6 95.2C26.6826 95.2 26.7624 95.2028 26.8436 95.2084C27.4232 93.548 28.9954 92.4 30.8 92.4C31.2886 92.4 31.7646 92.4854 32.2154 92.652C32.4464 89.3858 35.1764 86.8 38.5 86.8C41.0634 86.8 43.3524 88.3778 44.3142 90.6836C45.2662 89.9864 46.417 89.6 47.6 89.6C50.6884 89.6 53.2 92.1116 53.2 95.2C53.2 95.2672 53.1986 95.333 53.1944 95.3988C55.6346 96.026 57.4 98.2366 57.4 100.8C57.4 103.888 54.8884 106.4 51.8 106.4Z" fill="#472B29"/>
<path id="Vector_6" d="M44.1 105C43.8774 105 42.9226 105 42.7 105C42.3136 105 42 105.314 42 105.7C42 106.086 42.3136 106.4 42.7 106.4C42.9226 106.4 43.8774 106.4 44.1 106.4C44.4864 106.4 44.8 106.086 44.8 105.7C44.8 105.314 44.4864 105 44.1 105Z" fill="#472B29"/>
<path id="Vector_7" d="M21.567 71.4H7.7C7.3136 71.4 7 71.0864 7 70.7C7 70.3136 7.3136 70 7.7 70H21.567C21.9534 70 22.267 70.3136 22.267 70.7C22.267 71.0864 21.9548 71.4 21.567 71.4Z" fill="white"/>
<path id="Vector_8" d="M25.9 71.4H24.5C24.1136 71.4 23.8 71.0864 23.8 70.7C23.8 70.3136 24.1136 70 24.5 70H25.9C26.2864 70 26.6 70.3136 26.6 70.7C26.6 71.0864 26.2878 71.4 25.9 71.4Z" fill="white"/>
<path id="Vector_9" d="M32.8874 74.2H20.3C19.9136 74.2 19.6 73.8864 19.6 73.5C19.6 73.1136 19.9136 72.8 20.3 72.8H32.8874C33.2738 72.8 33.5874 73.1136 33.5874 73.5C33.5874 73.8864 33.2738 74.2 32.8874 74.2Z" fill="white"/>
<path id="Vector_10" d="M17.5 74.2H16.1C15.7136 74.2 15.4 73.8864 15.4 73.5C15.4 73.1136 15.7136 72.8 16.1 72.8H17.5C17.8864 72.8 18.2 73.1136 18.2 73.5C18.2 73.8864 17.8878 74.2 17.5 74.2Z" fill="white"/>
<path id="Vector_11" d="M13.3 74.2H10.5C10.1136 74.2 9.8 73.8864 9.8 73.5C9.8 73.1136 10.1136 72.8 10.5 72.8H13.3C13.6864 72.8 14 73.1136 14 73.5C14 73.8864 13.6878 74.2 13.3 74.2Z" fill="white"/>
<path id="Vector_12" d="M21.7 77H18.9C18.5136 77 18.2 76.6864 18.2 76.3C18.2 75.9136 18.5136 75.6 18.9 75.6H21.7C22.0864 75.6 22.4 75.9136 22.4 76.3C22.4 76.6864 22.0864 77 21.7 77Z" fill="white"/>
<path id="Vector_13" d="M25.9 64.4C25.6522 64.4 24.7478 64.4 24.5 64.4C24.1136 64.4 23.8 64.7136 23.8 65.1C23.8 65.4864 24.1136 65.8 24.5 65.8C24.7478 65.8 25.6522 65.8 25.9 65.8C26.2864 65.8 26.6 65.4864 26.6 65.1C26.6 64.7136 26.2864 64.4 25.9 64.4Z" fill="white"/>
<path id="Vector_14" d="M25.9 67.2C25.6522 67.2 19.1478 67.2 18.9 67.2C18.5136 67.2 18.2 67.5136 18.2 67.9C18.2 68.2864 18.5136 68.6 18.9 68.6C19.1478 68.6 25.6522 68.6 25.9 68.6C26.2864 68.6 26.6 68.2864 26.6 67.9C26.6 67.5136 26.2864 67.2 25.9 67.2Z" fill="white"/>
<path id="Vector_15" d="M32.9 70C32.6522 70 28.9478 70 28.7 70C28.3136 70 28 70.3136 28 70.7C28 71.0864 28.3136 71.4 28.7 71.4C28.9478 71.4 32.6522 71.4 32.9 71.4C33.2864 71.4 33.6 71.0864 33.6 70.7C33.6 70.3136 33.2864 70 32.9 70Z" fill="white"/>
<path id="Vector_16" d="M122.5 91H108.5C108.114 91 107.8 90.6864 107.8 90.3C107.8 89.9136 108.114 89.6 108.5 89.6H122.5C122.886 89.6 123.2 89.9136 123.2 90.3C123.2 90.6864 122.886 91 122.5 91Z" fill="white"/>
<path id="Vector_17" d="M128.1 91H125.3C124.914 91 124.6 90.6864 124.6 90.3C124.6 89.9136 124.914 89.6 125.3 89.6H128.1C128.486 89.6 128.8 89.9136 128.8 90.3C128.8 90.6864 128.486 91 128.1 91Z" fill="white"/>
<path id="Vector_18" d="M135.1 93.8H121.1C120.714 93.8 120.4 93.4864 120.4 93.1C120.4 92.7136 120.714 92.4 121.1 92.4H135.1C135.486 92.4 135.8 92.7136 135.8 93.1C135.8 93.4864 135.488 93.8 135.1 93.8Z" fill="white"/>
<path id="Vector_19" d="M118.3 93.8H116.9C116.514 93.8 116.2 93.4864 116.2 93.1C116.2 92.7136 116.514 92.4 116.9 92.4H118.3C118.686 92.4 119 92.7136 119 93.1C119 93.4864 118.686 93.8 118.3 93.8Z" fill="white"/>
<path id="Vector_20" d="M113.925 93.8H111.3C110.914 93.8 110.6 93.4864 110.6 93.1C110.6 92.7136 110.914 92.4 111.3 92.4H113.925C114.311 92.4 114.625 92.7136 114.625 93.1C114.625 93.4864 114.311 93.8 113.925 93.8Z" fill="white"/>
<path id="Vector_21" d="M126.7 88.2H119.7C119.314 88.2 119 87.8864 119 87.5C119 87.1136 119.314 86.8 119.7 86.8H126.7C127.086 86.8 127.4 87.1136 127.4 87.5C127.4 87.8864 127.088 88.2 126.7 88.2Z" fill="white"/>
<path id="Vector_22" d="M122.5 96.6H119.7C119.314 96.6 119 96.2864 119 95.9C119 95.5136 119.314 95.2 119.7 95.2H122.5C122.886 95.2 123.2 95.5136 123.2 95.9C123.2 96.2864 122.886 96.6 122.5 96.6Z" fill="white"/>
<path id="Vector_23" d="M41.9846 89.6154V50.3846C41.9846 44.9722 46.3722 40.5846 51.7846 40.5846H91.0168C96.4292 40.5846 100.817 44.9722 100.817 50.3846V89.6168C100.817 95.0292 96.4292 99.4168 91.0168 99.4168H51.7846C46.3722 99.4154 41.9846 95.0278 41.9846 89.6154Z" fill="#4792DD"/>
<path id="Vector_24" d="M91 41.16C96.0946 41.16 100.24 45.3054 100.24 50.4V89.6C100.24 94.6946 96.0946 98.84 91 98.84H51.8C46.7054 98.84 42.56 94.6946 42.56 89.6V50.4C42.56 45.3054 46.7054 41.16 51.8 41.16H91ZM91 39.2H51.8C45.6148 39.2 40.6 44.2148 40.6 50.4V89.6C40.6 95.7852 45.6148 100.8 51.8 100.8H91C97.1852 100.8 102.2 95.7852 102.2 89.6V50.4C102.2 44.2148 97.1852 39.2 91 39.2Z" fill="#472B29"/>
<path id="Vector_25" d="M97.3 57.4C96.9136 57.4 96.6 57.0864 96.6 56.7V51.1C96.6 47.6266 93.7734 44.8 90.3 44.8H74.9C74.5136 44.8 74.2 44.4864 74.2 44.1C74.2 43.7136 74.5136 43.4 74.9 43.4H90.3C94.5448 43.4 98 46.8538 98 51.1V56.7C98 57.0864 97.6864 57.4 97.3 57.4Z" fill="#472B29"/>
<path id="Vector_26" d="M97.3 79.8C96.9136 79.8 96.6 79.4864 96.6 79.1V66.4776C96.6 66.0912 96.9136 65.7776 97.3 65.7776C97.6864 65.7776 98 66.0912 98 66.4776V79.1C98 79.4864 97.6864 79.8 97.3 79.8Z" fill="#472B29"/>
<path id="Vector_27" d="M90.3 96.6H52.5C48.2552 96.6 44.8 93.1462 44.8 88.9V51.1C44.8 46.8538 48.2552 43.4 52.5 43.4H62.3C62.6864 43.4 63 43.7136 63 44.1C63 44.4864 62.6864 44.8 62.3 44.8H52.5C49.0266 44.8 46.2 47.6266 46.2 51.1V88.9C46.2 92.3734 49.0266 95.2 52.5 95.2H90.3C93.7734 95.2 96.6 92.3734 96.6 88.9V83.3C96.6 82.9136 96.9136 82.6 97.3 82.6C97.6864 82.6 98 82.9136 98 83.3V88.9C98 93.1462 94.5448 96.6 90.3 96.6Z" fill="#472B29"/>
<path id="Vector_28" d="M70.7 44.8H66.5C66.1136 44.8 65.8 44.4864 65.8 44.1C65.8 43.7136 66.1136 43.4 66.5 43.4H70.7C71.0864 43.4 71.4 43.7136 71.4 44.1C71.4 44.4864 71.0864 44.8 70.7 44.8Z" fill="#472B29"/>
<path id="Vector_29" d="M87.5 83.3H55.3C52.9802 83.3 51.1 81.4198 51.1 79.1V60.9C51.1 58.5802 52.9802 56.7 55.3 56.7H87.5C89.8198 56.7 91.7 58.5802 91.7 60.9V79.1C91.7 81.4198 89.8198 83.3 87.5 83.3Z" fill="#FDFCEF"/>
<path id="Vector_30" d="M87.5 84H55.3C52.598 84 50.4 81.802 50.4 79.1V60.9C50.4 58.198 52.598 56 55.3 56H87.5C90.202 56 92.4 58.198 92.4 60.9V79.1C92.4 81.802 90.202 84 87.5 84ZM55.3 57.4C53.3694 57.4 51.8 58.9708 51.8 60.9V79.1C51.8 81.0292 53.3694 82.6 55.3 82.6H87.5C89.4306 82.6 91 81.0292 91 79.1V60.9C91 58.9708 89.4306 57.4 87.5 57.4H55.3Z" fill="#472B29"/>
<path id="Vector_31" d="M71.4 75.551C69.895 75.551 68.3886 74.977 67.242 73.8318L52.0044 58.5956C51.7314 58.3226 51.7314 57.8788 52.0044 57.6058C52.2774 57.3328 52.7212 57.3328 52.9942 57.6058L68.2318 72.842C69.979 74.5878 72.8196 74.5878 74.5668 72.842L89.8044 57.6044C90.0774 57.3314 90.5212 57.3314 90.7942 57.6044C91.0672 57.8774 91.0672 58.3212 90.7942 58.5942L75.558 73.8318C74.4114 74.9784 72.905 75.551 71.4 75.551Z" fill="#472B29"/>
<path id="Vector_32" d="M52.5 82.6C52.3208 82.6 52.1416 82.5314 52.0044 82.3956C51.7314 82.1226 51.7314 81.6788 52.0044 81.4058L63.9044 69.5058C64.1774 69.2328 64.6212 69.2328 64.8942 69.5058C65.1672 69.7788 65.1672 70.2226 64.8942 70.4956L52.9942 82.3956C52.8584 82.5314 52.6792 82.6 52.5 82.6Z" fill="#472B29"/>
<path id="Vector_33" d="M90.3 82.6C90.1208 82.6 89.9416 82.5314 89.8044 82.3956L77.9044 70.4956C77.6314 70.2226 77.6314 69.7788 77.9044 69.5058C78.1774 69.2328 78.6212 69.2328 78.8942 69.5058L90.7942 81.4058C91.0672 81.6788 91.0672 82.1226 90.7942 82.3956C90.6584 82.5314 90.4792 82.6 90.3 82.6Z" fill="#472B29"/>
<g id="Group">
<path id="Vector_34" d="M113.225 49.7C113.225 49.7 118.321 49.7 121.8 49.7C125.279 49.7 128.1 46.879 128.1 43.4C128.1 40.1338 125.605 37.4794 122.423 37.163C122.454 36.9096 122.5 36.6618 122.5 36.4C122.5 32.921 119.679 30.1 116.2 30.1C114.187 30.1 112.416 31.0604 111.262 32.5304C111.066 28.84 108.039 25.9 104.3 25.9C100.435 25.9 97.3 29.0346 97.3 32.9C97.3 33.5244 97.4078 34.118 97.5618 34.6948C96.663 33.607 95.3204 32.9 93.8 32.9C91.3066 32.9 89.2724 34.769 88.963 37.177C88.7096 37.1462 88.4618 37.1 88.2 37.1C84.721 37.1 81.9 39.921 81.9 43.4C81.9 46.879 84.721 49.7 88.2 49.7C91.679 49.7 101.5 49.7 101.5 49.7H109.025V50.4H113.225V49.7Z" fill="#FDFCEF"/>
<path id="Vector_35" d="M104.3 25.2C100.054 25.2 96.6 28.6538 96.6 32.9C96.6 32.9224 96.6 32.9434 96.6 32.9658C95.7572 32.4688 94.794 32.2 93.8 32.2C91.2366 32.2 89.0246 33.9654 88.3988 36.407C88.333 36.4028 88.2672 36.4 88.2 36.4C84.3402 36.4 81.2 39.5402 81.2 43.4C81.2 47.2598 84.3402 50.4 88.2 50.4H109.025C109.411 50.4 109.725 50.0864 109.725 49.7C109.725 49.3136 109.411 49 109.025 49H88.2C85.1116 49 82.6 46.4884 82.6 43.4C82.6 40.3116 85.1116 37.8 88.2 37.8C88.3638 37.8 88.522 37.8238 88.6802 37.8448L88.8776 37.8714C88.907 37.8756 88.935 37.877 88.9644 37.877C89.3088 37.877 89.6112 37.618 89.6574 37.2652C89.9248 35.175 91.7056 33.6 93.8 33.6C95.039 33.6 96.2122 34.1614 97.0214 35.14C97.1586 35.3052 97.3588 35.3948 97.5618 35.3948C97.671 35.3948 97.7802 35.3696 97.881 35.3164C98.1736 35.1666 98.3206 34.832 98.2366 34.5142C98.0756 33.9052 98 33.3928 98 32.9C98 29.4266 100.827 26.6 104.3 26.6C107.633 26.6 110.386 29.2208 110.564 32.5682C110.579 32.8594 110.774 33.11 111.052 33.1982C111.122 33.2206 111.194 33.2318 111.265 33.2318C111.475 33.2318 111.679 33.1352 111.814 32.963C112.893 31.5882 114.491 30.8 116.2 30.8C119.288 30.8 121.8 33.3116 121.8 36.4C121.8 36.5638 121.776 36.722 121.755 36.8802L121.729 37.0776C121.706 37.2652 121.759 37.4528 121.877 37.5998C121.995 37.7468 122.167 37.8406 122.353 37.8588C125.231 38.1458 127.4 40.5286 127.4 43.4C127.4 46.4884 124.888 49 121.8 49H113.225C112.839 49 112.525 49.3136 112.525 49.7C112.525 50.0864 112.839 50.4 113.225 50.4H121.8C125.66 50.4 128.8 47.2598 128.8 43.4C128.8 40.0442 126.435 37.2218 123.196 36.5722C123.199 36.5148 123.2 36.4574 123.2 36.4C123.2 32.5402 120.06 29.4 116.2 29.4C114.554 29.4 112.99 29.9824 111.744 31.0296C110.907 27.664 107.877 25.2 104.3 25.2Z" fill="#472B29"/>
<path id="Vector_36" d="M102.2 35C100.236 35 98.5474 36.3986 98.1218 38.2774C97.608 37.9666 97.0214 37.8 96.425 37.8C94.7422 37.8 93.3478 39.0558 93.1308 40.6952C92.8466 40.6308 92.5764 40.6 92.3132 40.6C90.1726 40.6 88.3778 42.28 88.228 44.4248C88.214 44.618 88.3596 44.786 88.5514 44.8C88.5598 44.8 88.5682 44.8 88.5766 44.8C88.7586 44.8 88.9126 44.6586 88.9252 44.4752C89.0498 42.6958 90.5366 41.3 92.3118 41.3C92.6324 41.3 92.9698 41.3588 93.345 41.4778C93.3758 41.4876 93.408 41.4918 93.4388 41.4918C93.5158 41.4918 93.5928 41.4638 93.6572 41.4162C93.7468 41.3518 93.8 41.237 93.8 41.125C93.8 39.6774 94.9774 38.5 96.425 38.5C97.0508 38.5 97.664 38.7352 98.1484 39.1622C98.2142 39.2196 98.2968 39.2504 98.3794 39.2504C98.4242 39.2504 98.4676 39.242 98.5096 39.2238C98.6328 39.1748 98.7168 39.06 98.7266 38.927C98.8722 37.1168 100.397 35.7 102.2 35.7C102.491 35.7 102.795 35.7476 103.155 35.8498C103.187 35.8596 103.221 35.8638 103.253 35.8638C103.405 35.8638 103.543 35.7616 103.587 35.609C103.641 35.4228 103.533 35.2296 103.347 35.1764C102.924 35.056 102.558 35 102.2 35Z" fill="#472B29"/>
<path id="Vector_37" d="M121.636 37.1C119.78 37.1 118.125 38.3558 117.613 40.1548C117.559 40.341 117.667 40.5342 117.853 40.5874C117.887 40.5958 117.919 40.6 117.95 40.6C118.103 40.6 118.243 40.4992 118.286 40.3452C118.713 38.8472 120.091 37.8 121.636 37.8C121.8 37.8 121.958 37.8196 122.115 37.8406C122.132 37.8434 122.147 37.8448 122.164 37.8448C122.333 37.8448 122.485 37.716 122.508 37.541C122.535 37.3492 122.401 37.1728 122.209 37.1476C122.021 37.1224 121.831 37.1 121.636 37.1Z" fill="#472B29"/>
</g>
</g>
</svg>
